# xmcd
#
# Track frame offsets:
#  150
#  12461
#  24317
#  42912
#  51805
#  64638
#  85147
#  102453
#  111275
#  131336
#  144277
#  160099
#  173574
#  186470
#
# Disc length: 2780 seconds
#
# Revision: 0
# Processed by: cddbd v1.5.2PL0 Copyright (c) Steve Scherf et al.
# Submitted via: AltoMP3_Maker 3.0
#
DISCID=b30ada0e
DTITLE=Eugene Chrysler - Hillbilly Shakespeare
DYEAR=1900
DGENRE=
TTITLE0=Thunder Road
TTITLE1=Crazy in Love
TTITLE2=From Me to You (Cyndi Cashdollar)
TTITLE3=Lonesome Rain
TTITLE4=Behind Me
TTITLE5=Get Hip
TTITLE6=Don't Forget about Me
TTITLE7=Galdarnit!
TTITLE8=Drinkin' My Dinner
TTITLE9=Slap That Thang
TTITLE10=Stop and Let Me Drink about It
TTITLE11=Living on Closing Time
TTITLE12=I Don't Drive a Truck . . . but I spend all my time in a truck stop
TTITLE13=Hill"Billy" Shakespeare
EXTD=
EXTT0=
EXTT1=
EXTT2=
EXTT3=
EXTT4=
EXTT5=
EXTT6=
EXTT7=
EXTT8=
EXTT9=
EXTT10=
EXTT11=
EXTT12=
EXTT13=
PLAYORDER=
